<?xml version="1.0" encoding="UTF-8" standalone="no"?>
<svg
   xmlns:dc="http://purl.org/dc/elements/1.1/"
   xmlns:cc="http://creativecommons.org/ns#"
   xmlns:rdf="http://www.w3.org/1999/02/22-rdf-syntax-ns#"
   xmlns:svg="http://www.w3.org/2000/svg"
   xmlns="http://www.w3.org/2000/svg"
   xmlns:sodipodi="http://sodipodi.sourceforge.net/DTD/sodipodi-0.dtd"
   xmlns:inkscape="http://www.inkscape.org/namespaces/inkscape"
   version="1.1"
   id="plastic"
   x="0px"
   y="0px"
   width="455.46768"
   height="300"
   viewBox="0 0 455.46769 300"
   enable-background="new 0 0 409.236 300"
   xml:space="preserve"
   sodipodi:docname="flashcards2.svg"
   inkscape:version="1.0.1 (3bc2e813f5, 2020-09-07)"><metadata
   id="metadata73"><rdf:RDF><cc:Work
       rdf:about=""><dc:format>image/svg+xml</dc:format><dc:type
         rdf:resource="http://purl.org/dc/dcmitype/StillImage" /><dc:title></dc:title></cc:Work></rdf:RDF></metadata><defs
   id="defs71">
	
	
	
	
	
	
	
	
	
	
	
	
	
	
	
	
	
	
	
	
	
	
	
	
	
	
</defs><sodipodi:namedview
   pagecolor="#ffffff"
   bordercolor="#666666"
   borderopacity="1"
   objecttolerance="10"
   gridtolerance="10"
   guidetolerance="10"
   inkscape:pageopacity="0"
   inkscape:pageshadow="2"
   inkscape:window-width="1920"
   inkscape:window-height="1017"
   id="namedview69"
   showgrid="false"
   fit-margin-top="0"
   fit-margin-left="0"
   fit-margin-right="0"
   fit-margin-bottom="0"
   inkscape:zoom="2.7566667"
   inkscape:cx="223.86886"
   inkscape:cy="150"
   inkscape:window-x="-8"
   inkscape:window-y="-8"
   inkscape:window-maximized="1"
   inkscape:current-layer="plastic" />
<path
   fill="#7564bc"
   d="M 392.327,65.765 H 79.331 c -9.33,0 -16.909,5.061 -16.909,11.281 V 288.72 c 0,6.219 7.58,11.28 16.909,11.28 h 312.996 c 9.329,0 16.909,-5.062 16.909,-11.28 V 77.045 c 0,-6.219 -7.58,-11.28 -16.909,-11.28 z m 3.032,210.247 c 0,6.075 -7.358,11.013 -16.387,11.013 H 94.914 c -9.028,0 -16.386,-4.938 -16.386,-11.013 V 90.31 c 0,-6.075 7.357,-11.014 16.386,-11.014 h 284.059 c 9.028,0 16.387,4.939 16.387,11.014 v 185.702 z"
   id="path2" /><path
   id="white_bkgrnd"
   fill="#ffffff"
   d="m 394.881,89.753 v 186.259 c 0,5.818 -7.123,10.534 -15.908,10.534 H 94.914 c -8.783,0 -15.906,-4.716 -15.906,-10.534 V 89.753 c 0,-5.819 7.123,-10.534 15.906,-10.534 h 284.059 c 8.785,0 15.908,4.715 15.908,10.534 z" /><g
   id="purple">
		<path
   fill="#9a90f4"
   d="M 386.128,275.956 H 89.808 c -5.631,0 -9.15,-0.8 -11.357,-1.819 v 2.433 c 0,5.818 7.122,10.534 15.906,10.534 H 379.53 c 8.784,0 15.908,-4.716 15.908,-10.534 v -2.12 c -4.47,2.033 -9.31,1.506 -9.31,1.506 z"
   id="path5" />
		<path
   fill="#c9c1f5"
   d="M 379.53,98.726 H 94.356 c -8.784,0 -15.906,4.714 -15.906,10.534 v 164.877 c 2.208,1.02 5.727,1.819 11.357,1.819 h 296.32 c 0,0 4.84,0.527 9.311,-1.507 v -165.19 c 0,-5.819 -7.124,-10.533 -15.908,-10.533 z"
   id="path7" />
	</g><path
   fill="#ffffff"
   d="m 365.412,193.506 c 0,3.652 -2.952,6.605 -6.605,6.605 -3.638,0 -6.59,-2.953 -6.59,-6.605 v -11.278 c 0,-3.639 2.952,-6.591 6.59,-6.591 3.653,0 6.605,2.952 6.605,6.591 z"
   id="path24" /><path
   fill="#ffffff"
   d="m 343.036,193.506 c 0,3.652 -2.952,6.605 -6.605,6.605 -3.638,0 -6.59,-2.953 -6.59,-6.605 v -11.278 c 0,-3.639 2.952,-6.591 6.59,-6.591 3.653,0 6.605,2.952 6.605,6.591 z"
   id="path26" /><path
   fill="#ffffff"
   d="m 320.66,193.506 c 0,3.652 -2.952,6.605 -6.605,6.605 -3.638,0 -6.59,-2.953 -6.59,-6.605 v -11.278 c 0,-3.639 2.952,-6.591 6.59,-6.591 3.653,0 6.605,2.952 6.605,6.591 z"
   id="path28" /><path
   fill="#ffffff"
   d="m 298.284,193.506 c 0,3.652 -2.952,6.605 -6.605,6.605 -3.638,0 -6.59,-2.953 -6.59,-6.605 v -11.277 c 0,-3.639 2.952,-6.592 6.59,-6.592 3.653,0 6.605,2.953 6.605,6.592 z"
   id="path30" /><path
   fill="#ffffff"
   d="m 275.908,193.506 c 0,3.652 -2.952,6.605 -6.604,6.605 -3.639,0 -6.591,-2.953 -6.591,-6.605 v -11.278 c 0,-3.639 2.952,-6.591 6.591,-6.591 3.652,0 6.604,2.952 6.604,6.591 z"
   id="path32" /><path
   fill="#ffffff"
   d="m 253.532,193.506 c 0,3.652 -2.952,6.605 -6.604,6.605 -3.639,0 -6.589,-2.953 -6.589,-6.605 v -11.278 c 0,-3.639 2.95,-6.591 6.589,-6.591 3.652,0 6.604,2.952 6.604,6.591 z"
   id="path34" /><path
   fill="#ffffff"
   d="m 231.156,193.506 c 0,3.652 -2.952,6.605 -6.604,6.605 -3.638,0 -6.59,-2.953 -6.59,-6.605 v -11.277 c 0,-3.639 2.952,-6.592 6.59,-6.592 3.651,0 6.604,2.953 6.604,6.592 z"
   id="path36" /><path
   fill="#ffffff"
   d="m 208.782,193.506 c 0,3.652 -2.952,6.605 -6.605,6.605 -3.639,0 -6.59,-2.953 -6.59,-6.605 v -11.278 c 0,-3.639 2.951,-6.591 6.59,-6.591 3.653,0 6.605,2.952 6.605,6.591 z"
   id="path38" /><path
   fill="#ffffff"
   d="m 186.406,193.506 c 0,3.652 -2.952,6.605 -6.605,6.605 -3.638,0 -6.59,-2.953 -6.59,-6.605 v -11.277 c 0,-3.64 2.952,-6.592 6.59,-6.592 3.653,0 6.605,2.952 6.605,6.592 z"
   id="path40" /><path
   fill="#ffffff"
   d="m 164.03,193.506 c 0,3.652 -2.952,6.605 -6.605,6.605 -3.638,0 -6.59,-2.953 -6.59,-6.605 v -11.278 c 0,-3.639 2.952,-6.591 6.59,-6.591 3.653,0 6.605,2.952 6.605,6.591 z"
   id="path42" /><path
   fill="#7564bc"
   d="M 360.56,32.882 H 47.563 c -9.33,0 -16.91,5.061 -16.91,11.281 v 211.674 c 0,6.219 7.58,11.279 16.91,11.279 H 62.5 V 254.131 C 53.761,253.908 46.761,249.06 46.761,243.13 V 57.428 c 0,-6.075 7.356,-11.014 16.385,-11.014 h 284.06 c 9.028,0 16.386,4.938 16.386,11.014 v 8.416 h 13.878 v -21.68 c -0.001,-6.221 -7.582,-11.282 -16.91,-11.282 z"
   id="path50" /><path
   fill="#ddbac4"
   d="m 363.669,56.871 v 8.973 H 79.887 c -9.608,0 -17.388,5.261 -17.388,11.759 V 254.221 C 53.76,254.187 46.682,249.484 46.682,243.687 V 56.871 c 0,-5.819 7.124,-10.534 15.907,-10.534 h 285.174 c 8.783,0 15.906,4.714 15.906,10.534 z"
   id="path52" /><path
   fill="#ff7eaa"
   d="m 46.682,243.687 c 0,5.674 7.334,10.3 15.817,10.523 v -11.223 c -5.726,-0.813 -11.973,-3.292 -15.817,-5.019 z"
   id="path54" /><path
   fill="#ff99b1"
   d="M 79.887,65.843 H 63.146 c -8.783,0 -16.464,4.714 -16.464,10.534 v 161.592 c 3.845,1.727 10.092,4.205 15.817,5.019 V 77.603 c 0,-6.499 7.78,-11.76 17.388,-11.76 z"
   id="path56" /><path
   fill="#7564bc"
   d="M 329.906,0 H 16.909 C 7.579,0 0,5.061 0,11.28 v 211.675 c 0,6.219 7.579,11.279 16.909,11.279 H 30.731 V 221.193 C 22.527,220.602 16.106,215.921 16.106,210.247 V 24.545 c 0,-6.075 7.356,-11.014 16.386,-11.014 h 284.059 c 9.028,0 16.386,4.938 16.386,11.014 v 8.416 h 13.878 V 11.28 C 346.815,5.061 339.235,0 329.906,0 Z"
   id="path58" /><path
   fill="#cbffff"
   d="m 332.459,24.545 v 8.416 H 48.12 c -9.608,0 -17.388,5.261 -17.388,11.759 V 220.713 C 22.773,220.135 16.586,215.676 16.586,210.247 V 24.545 c 0,-5.819 7.123,-10.534 15.907,-10.534 h 284.059 c 8.784,0.001 15.907,4.715 15.907,10.534 z"
   id="path60" /><path
   fill="#51abdb"
   d="m 16.028,210.805 c 0,5.429 6.744,9.887 14.703,10.466 v -14.252 c -6.692,-0.587 -11.789,-2.363 -14.703,-3.636 z"
   id="path62" /><path
   fill="#83bcdb"
   d="M 48.12,32.961 H 32.493 c -8.784,0 -16.464,4.714 -16.464,10.534 v 159.888 c 2.914,1.272 8.011,3.049 14.703,3.636 V 44.72 C 30.731,38.222 38.511,32.961 48.12,32.961 Z"
   id="path64" />
<text
   xml:space="preserve"
   style="font-style:normal;font-weight:normal;font-size:40px;line-height:1.25;font-family:sans-serif;letter-spacing:0px;word-spacing:0px;fill:#000000;fill-opacity:1;stroke:none"
   x="92.470589"
   y="263.64706"
   id="text934"><tspan
     sodipodi:role="line"
     id="tspan932"
     x="92.470589"
     y="263.64706"
     style="font-style:normal;font-variant:normal;font-weight:bold;font-stretch:normal;font-family:sans-serif;-inkscape-font-specification:'sans-serif Bold';fill:#e6e6e6">Flashcard</tspan></text><path
   style="fill:none;stroke:#000000;stroke-width:4;stroke-linecap:butt;stroke-linejoin:miter;stroke-miterlimit:4;stroke-dasharray:none;stroke-opacity:1"
   d="m 403.17671,62.918672 c 114.80086,-47.417749 -2.87108,67.355358 -2.87108,67.355358"
   id="path946"
   sodipodi:nodetypes="cc" /><path
   style="fill:none;stroke:#000000;stroke-width:4.5;stroke-linecap:butt;stroke-linejoin:miter;stroke-miterlimit:4;stroke-dasharray:none;stroke-opacity:1"
   d="m 404.99531,54.546857 -5.3527,9.813271 10.82175,2.210894"
   id="path950" /></svg>
